<?xml version="1.0" encoding="UTF-8"?>
<svg xmlns="http://www.w3.org/2000/svg" version="1.1" viewBox="0 0 200 200">
  <!-- Generator: Adobe Illustrator 29.1.0, SVG Export Plug-In . SVG Version: 2.1.0 Build 79)  -->
  <defs>
    <style>
      .st0, .st1 {
        stroke: #000;
      }

      .st0, .st1, .st2 {
        fill: none;
        stroke-miterlimit: 10;
      }

      .st3 {
        fill: #fff;
      }

      .st4 {
        fill: #c7c8ca;
      }

      .st1 {
        stroke-dasharray: 5 5;
        stroke-linecap: square;
      }

      .st2 {
        stroke: #231f20;
      }

      .st5 {
        fill: #e8e8e8;
      }
    </style>
  </defs>
  <g id="Layer_1">
    <rect class="st3" width="200" height="200"/>
    <g id="Isolation_Mode">
      <line class="st2" x1="54.52" y1="182.03" x2="145.51" y2="182.03"/>
    </g>
    <g>
      <line class="st0" x1=".5" y1="200.01" x2=".5" y2="12.5"/>
      <line class="st0" x1="0" y1="199.51" x2="199.51" y2="199.51"/>
      <polyline class="st0" points="199.51 60.66 199.51 165.68 199.51 165.68 199.51 200.02"/>
    </g>
    <polygon class="st5" points="144.47 182.03 55.55 182.02 55.53 137.59 144.45 137.55 144.47 182.03"/>
    <rect class="st4" x=".69" y=".87" width="198.86" height="10.42"/>
    <rect class="st4" x="163.71" y="25.13" width="60.35" height="10.7" transform="translate(163.41 224.37) rotate(-90)"/>
    <line class="st1" x1="57.43" y1="136.95" x2="145.82" y2="136.95"/>
    <line class="st1" x1="144.95" y1="138.01" x2="145" y2="181.21"/>
    <line class="st1" x1="55.02" y1="138.44" x2="55.02" y2="181.25"/>
    <g>
      <polygon class="st5" points="189.36 54.62 58.76 54.64 58.74 11.85 189.34 11.79 189.36 54.62"/>
      <line class="st1" x1="58.76" y1="55.14" x2="188.63" y2="55.14"/>
    </g>
    <path d="M200.01,61h-11.87V11.84H0V-.03h200v61.03ZM189.14,60h9.87V.97H1v9.87h188.13v49.15Z"/>
    <line class="st0" x1="58.74" y1="11.44" x2="58.74" y2="55.62"/>
  </g>
  <g id="Isolation_Mode1" data-name="Isolation_Mode">
    <line class="st0" x1="54.52" y1="182.03" x2="145.51" y2="182.03"/>
  </g>
</svg>