<?xml version="1.0" encoding="UTF-8"?>
<svg xmlns="http://www.w3.org/2000/svg" version="1.1" viewBox="0 0 200 200">
  <!-- Generator: Adobe Illustrator 29.1.0, SVG Export Plug-In . SVG Version: 2.1.0 Build 79)  -->
  <defs>
    <style>
      .st0, .st1 {
        fill: none;
        stroke: #000;
        stroke-miterlimit: 10;
      }

      .st2 {
        fill: #fff;
      }

      .st3 {
        fill: #c7c8ca;
      }

      .st1 {
        stroke-dasharray: 5 5;
        stroke-linecap: square;
      }

      .st4 {
        fill: #e8e8e8;
      }
    </style>
  </defs>
  <g id="Layer_1">
    <g>
      <rect class="st2" x="0" width="200" height="200"/>
      <g>
        <rect class="st4" x="-55.41" y="77.72" width="177.06" height="43.91" transform="translate(-66.55 132.84) rotate(-90.03)"/>
        <polygon class="st4" points="200 54.43 10.78 54.47 10.76 11.16 199.99 11.08 200 54.43"/>
        <line class="st1" x1="55.55" y1="54.92" x2="199.14" y2="54.92"/>
        <line class="st1" x1="55.55" y1="54.92" x2="55.55" y2="187.93"/>
      </g>
    </g>
    <rect class="st3" x=".69" y=".87" width="198.86" height="10.42"/>
    <rect class="st3" x="-93.53" y="94.7" width="198.86" height="10.42" transform="translate(105.8 94.01) rotate(90)"/>
    <rect class="st3" x=".69" y="187.77" width="198.86" height="11.23"/>
    <path d="M200.02,200H-.04V0s200.06,0,200.06,0v11.84H11.82v175.32h188.2v12.83ZM.96,199h198.07v-10.84H10.84V10.85s188.19,0,188.19,0V1H.95v198.01Z"/>
  </g>
  <g id="Isolation_Mode">
    <polyline class="st0" points="199.51 11.29 199.51 144.16 199.52 144.16 199.52 187.6"/>
  </g>
</svg>