<?xml version="1.0" encoding="UTF-8"?>
<svg id="Layer_1" xmlns="http://www.w3.org/2000/svg" version="1.1" viewBox="0 0 200 200">
  <!-- Generator: Adobe Illustrator 29.1.0, SVG Export Plug-In . SVG Version: 2.1.0 Build 79)  -->
  <defs>
    <style>
      .st0, .st1 {
        stroke: #000;
      }

      .st0, .st1, .st2 {
        fill: none;
        stroke-miterlimit: 10;
      }

      .st3 {
        fill: #fff;
      }

      .st4 {
        fill: #c7c8ca;
      }

      .st1 {
        stroke-dasharray: 5 5;
        stroke-linecap: square;
      }

      .st2 {
        stroke: #231f20;
      }

      .st5 {
        fill: #e8e8e8;
      }
    </style>
  </defs>
  <rect class="st3" x="0" width="200" height="200"/>
  <rect class="st4" x=".49" y="187.68" width="199.09" height="11.66"/>
  <rect class="st4" x=".48" y=".5" width="198.86" height="10.59"/>
  <polygon class="st5" points="134.92 188.05 11.01 188.06 10.99 144.75 134.9 144.69 134.92 188.05"/>
  <polygon class="st5" points="189.01 54.63 11.01 54.66 10.99 11.35 188.99 11.27 189.01 54.63"/>
  <rect class="st4" x="-90.62" y="92.8" width="192.83" height="11.13" transform="translate(104.16 92.57) rotate(90)"/>
  <rect class="st4" x="162.25" y="157.39" width="63.64" height="11.13" transform="translate(357.03 -31.12) rotate(90)"/>
  <rect class="st4" x="162.25" y="31.29" width="63.64" height="11.13" transform="translate(230.93 -157.22) rotate(90)"/>
  <polygon class="st2" points="199.52 135.06 199.52 131.34 188.66 131.34 188.66 135.06 188.66 135.06 188.65 187.68 11.37 187.68 11.35 11.35 188.66 11.35 188.65 64.62 188.65 68.67 199.52 68.67 199.52 68.56 199.52 68.56 199.53 11.35 199.53 11.35 199.53 8.64 199.53 4.21 199.53 4.21 199.53 .5 .49 .5 .49 11.35 .48 11.35 .49 199.19 .49 199.19 .49 199.52 199.53 199.52 199.53 187.68 199.52 187.68 199.53 135.06 199.52 135.06"/>
  <line class="st1" x1="11.12" y1="55.16" x2="189.07" y2="55.16"/>
  <line class="st1" x1="11.12" y1="144.24" x2="134.81" y2="144.24"/>
  <rect class="st2" x="188.62" y="68.67" width="10.91" height="62.67"/>
  <line class="st0" x1="134.81" y1="143.8" x2="134.81" y2="187.98"/>
</svg>